<?xml version="1.0" encoding="UTF-8"?>
<!DOCTYPE svg PUBLIC "-//W3C//DTD SVG 1.1//EN" "http://www.w3.org/Graphics/SVG/1.1/DTD/svg11.dtd">
<!-- Creator: CorelDRAW -->
<svg xmlns="http://www.w3.org/2000/svg" xml:space="preserve" width="280px" height="87px" version="1.1" style="shape-rendering:geometricPrecision; text-rendering:geometricPrecision; image-rendering:optimizeQuality; fill-rule:evenodd; clip-rule:evenodd"
viewBox="0 0 280 87"
 xmlns:xlink="http://www.w3.org/1999/xlink"
 xmlns:xodm="http://www.corel.com/coreldraw/odm/2003">
 <defs>
  <style type="text/css">
   <![CDATA[
    .str0 {stroke:black;stroke-width:0.9;stroke-miterlimit:22.9256}
    .fil1 {fill:#737373;fill-rule:nonzero}
    .fil4 {fill:whitesmoke;fill-rule:nonzero}
    .fil2 {fill:orange;fill-rule:nonzero}
    .fil5 {fill:orange;fill-rule:nonzero}
    .fil3 {fill:white;fill-rule:nonzero}
    .fil0 {fill:url(#id0)}
   ]]>
  </style>
  <radialGradient id="id0" gradientUnits="userSpaceOnUse" gradientTransform="matrix(1.90998 -9.44506E-05 7.08659E-05 1.56552 -119 -26)" cx="130.55" cy="45.54" r="38.51" fx="130.55" fy="45.54">
   <stop offset="0" style="stop-opacity:1; stop-color:#666666"/>
   <stop offset="1" style="stop-opacity:1; stop-color:#333333"/>
  </radialGradient>
 </defs>
 <g id="Camada_x0020_1">
  <metadata id="CorelCorpID_0Corel-Layer"/>
  <path class="fil0" d="M109.03 13.97l43.04 0c9.35,0 16.99,7.65 16.99,17l0 29.14c0,9.35 -7.64,16.99 -16.99,16.99l-43.04 0c-9.34,0 -16.99,-7.64 -16.99,-16.99l0 -29.14c0,-9.35 7.65,-17 16.99,-17z"/>
  <path class="fil1" d="M51.92 54.87c1.63,0 2.79,-0.16 3.47,-0.48 0.67,-0.32 1.01,-0.94 1.01,-1.85 0,-0.72 -0.44,-1.35 -1.31,-1.88 -0.88,-0.54 -2.21,-1.15 -4.01,-1.82 -1.39,-0.52 -2.65,-1.06 -3.79,-1.62 -1.13,-0.55 -2.1,-1.22 -2.9,-2 -0.79,-0.77 -1.41,-1.7 -1.85,-2.77 -0.44,-1.08 -0.66,-2.37 -0.66,-3.89 0,-2.94 1.1,-5.27 3.29,-6.98 2.19,-1.71 5.2,-2.57 9.02,-2.57 1.91,0 3.74,0.17 5.5,0.51 1.75,0.33 3.14,0.7 4.18,1.1l-1.55 6.93c-1.04,-0.36 -2.17,-0.68 -3.38,-0.96 -1.21,-0.28 -2.58,-0.42 -4.09,-0.42 -2.79,0 -4.18,0.78 -4.18,2.33 0,0.36 0.06,0.68 0.18,0.96 0.11,0.28 0.35,0.55 0.71,0.81 0.36,0.25 0.85,0.53 1.46,0.83 0.62,0.31 1.41,0.64 2.37,1 1.95,0.72 3.56,1.43 4.83,2.14 1.28,0.69 2.29,1.46 3.02,2.27 0.74,0.81 1.26,1.72 1.55,2.71 0.3,1 0.45,2.14 0.45,3.46 0,3.09 -1.16,5.44 -3.49,7.03 -2.33,1.59 -5.63,2.38 -9.89,2.38 -2.79,0 -5.11,-0.24 -6.96,-0.71 -1.85,-0.48 -3.13,-0.88 -3.85,-1.2l1.49 -7.22c1.51,0.59 3.07,1.06 4.66,1.4 1.59,0.34 3.17,0.51 4.72,0.51z"/>
  <path class="fil2" d="M86.1 20.77c0,1.63 -0.53,2.91 -1.58,3.85 -1.06,0.94 -2.3,1.4 -3.74,1.4 -1.43,0 -2.67,-0.46 -3.73,-1.4 -1.06,-0.94 -1.58,-2.22 -1.58,-3.85 0,-1.63 0.52,-2.92 1.58,-3.85 1.06,-0.94 2.3,-1.41 3.73,-1.41 1.44,0 2.68,0.47 3.74,1.41 1.05,0.93 1.58,2.22 1.58,3.85z"/>
  <polygon class="fil1" points="85.27,61.26 76.36,61.26 76.36,29.84 85.27,29.84 "/>
  <path class="fil3" d="M105.7 44.54c0,4.97 2.01,7.46 6.04,7.46 0.91,0 1.77,-0.12 2.57,-0.36 0.79,-0.24 1.47,-0.52 2.03,-0.83l0 -14.22c-0.44,-0.08 -0.96,-0.15 -1.56,-0.21 -0.59,-0.06 -1.29,-0.08 -2.09,-0.08 -2.35,0 -4.1,0.77 -5.26,2.32 -1.15,1.56 -1.73,3.53 -1.73,5.92zm19.54 12.78c0,5.13 -1.31,8.94 -3.92,11.43 -2.6,2.49 -6.64,3.73 -12.09,3.73 -1.91,0 -3.83,-0.17 -5.74,-0.5 -1.91,-0.34 -3.68,-0.79 -5.32,-1.35l1.56 -7.46c1.39,0.56 2.86,0.99 4.39,1.31 1.53,0.32 3.27,0.48 5.23,0.48 2.55,0 4.35,-0.56 5.4,-1.67 1.06,-1.12 1.59,-2.55 1.59,-4.3l0 -1.14c-0.96,0.44 -1.95,0.77 -2.96,0.99 -1.02,0.22 -2.12,0.33 -3.32,0.33 -4.34,0 -7.66,-1.29 -9.97,-3.86 -2.31,-2.56 -3.47,-6.16 -3.47,-10.77 0,-2.31 0.36,-4.41 1.08,-6.3 0.71,-1.9 1.76,-3.52 3.13,-4.87 1.38,-1.35 3.06,-2.4 5.05,-3.14 1.99,-0.73 4.24,-1.1 6.75,-1.1 1.08,0 2.18,0.05 3.32,0.15 1.13,0.1 2.26,0.23 3.37,0.39 1.12,0.16 2.18,0.34 3.2,0.56 1.02,0.22 1.92,0.45 2.72,0.69l0 26.4z"/>
  <path class="fil4" d="M150.1 55.05c0.87,0 1.71,-0.02 2.51,-0.06 0.79,-0.04 1.43,-0.1 1.91,-0.18l0 -6.75c-0.36,-0.08 -0.9,-0.16 -1.62,-0.24 -0.71,-0.08 -1.37,-0.12 -1.97,-0.12 -0.83,0 -1.62,0.05 -2.36,0.15 -0.73,0.1 -1.38,0.29 -1.94,0.57 -0.55,0.28 -0.99,0.65 -1.31,1.13 -0.32,0.48 -0.48,1.08 -0.48,1.79 0,1.4 0.47,2.36 1.4,2.9 0.94,0.54 2.22,0.81 3.86,0.81zm-0.72 -26.04c2.63,0 4.82,0.3 6.57,0.89 1.75,0.6 3.16,1.46 4.22,2.57 1.05,1.12 1.8,2.47 2.23,4.06 0.44,1.6 0.66,3.37 0.66,5.32l0 18.51c-1.27,0.28 -3.04,0.61 -5.32,0.99 -2.27,0.37 -5.01,0.56 -8.24,0.56 -2.03,0 -3.87,-0.18 -5.53,-0.53 -1.65,-0.36 -3.07,-0.95 -4.27,-1.76 -1.19,-0.82 -2.11,-1.89 -2.74,-3.2 -0.64,-1.31 -0.96,-2.93 -0.96,-4.84 0,-1.83 0.37,-3.38 1.1,-4.66 0.74,-1.27 1.73,-2.28 2.96,-3.04 1.24,-0.76 2.65,-1.3 4.24,-1.64 1.6,-0.34 3.25,-0.51 4.96,-0.51 1.16,0 2.18,0.05 3.08,0.15 0.89,0.1 1.62,0.23 2.18,0.39l0 -0.84c0,-1.51 -0.46,-2.73 -1.38,-3.64 -0.91,-0.92 -2.51,-1.38 -4.77,-1.38 -1.52,0 -3.01,0.11 -4.49,0.33 -1.47,0.22 -2.74,0.53 -3.82,0.93l-1.13 -7.17c0.51,-0.16 1.16,-0.33 1.94,-0.51 0.77,-0.17 1.62,-0.33 2.54,-0.47 0.91,-0.14 1.88,-0.26 2.89,-0.36 1.02,-0.1 2.05,-0.15 3.08,-0.15z"/>
  <path class="fil5 str0" d="M182.33 59.42c-1.14,-2.23 -2.31,-4.84 -3.48,-7.83 -1.18,-2.99 -2.29,-6.25 -3.35,-9.78l5.3 0c0.22,0.87 0.48,1.81 0.79,2.83 0.3,1.01 0.61,2.04 0.94,3.08 0.33,1.04 0.65,2.05 0.97,3.03 0.33,0.98 0.65,1.88 0.96,2.68 0.29,-0.8 0.61,-1.7 0.95,-2.68 0.33,-0.98 0.66,-1.99 0.99,-3.03 0.32,-1.04 0.64,-2.07 0.94,-3.08 0.3,-1.02 0.56,-1.96 0.79,-2.83l5.16 0c-1.05,3.53 -2.16,6.79 -3.34,9.78 -1.18,2.99 -2.34,5.6 -3.48,7.83l-4.14 0zm30.4 -17.11c0,0.85 -0.17,1.66 -0.51,2.45 -0.33,0.78 -0.77,1.53 -1.3,2.26 -0.54,0.72 -1.14,1.42 -1.81,2.09 -0.67,0.67 -1.33,1.31 -1.98,1.91 -0.33,0.31 -0.7,0.66 -1.09,1.05 -0.39,0.39 -0.76,0.79 -1.12,1.19 -0.36,0.4 -0.67,0.78 -0.95,1.12 -0.28,0.35 -0.46,0.63 -0.52,0.86l9.98 0 0 4.18 -15.48 0c-0.04,-0.24 -0.07,-0.55 -0.07,-0.93 0,-0.38 0,-0.65 0,-0.81 0,-1.07 0.18,-2.05 0.52,-2.94 0.35,-0.9 0.8,-1.73 1.36,-2.5 0.56,-0.77 1.19,-1.49 1.89,-2.16 0.71,-0.67 1.41,-1.34 2.1,-2.01 0.53,-0.51 1.04,-1 1.51,-1.46 0.46,-0.45 0.88,-0.9 1.24,-1.33 0.35,-0.44 0.63,-0.88 0.83,-1.31 0.2,-0.44 0.3,-0.88 0.3,-1.32 0,-0.99 -0.28,-1.68 -0.83,-2.08 -0.56,-0.4 -1.25,-0.6 -2.08,-0.6 -0.6,0 -1.17,0.09 -1.69,0.28 -0.53,0.19 -1.01,0.41 -1.44,0.67 -0.44,0.26 -0.81,0.51 -1.13,0.77 -0.31,0.26 -0.54,0.46 -0.7,0.62l-2.48 -3.48c0.98,-0.92 2.13,-1.67 3.43,-2.26 1.31,-0.59 2.71,-0.89 4.21,-0.89 1.36,0 2.54,0.16 3.52,0.47 0.98,0.31 1.79,0.75 2.43,1.32 0.63,0.57 1.1,1.26 1.4,2.08 0.31,0.81 0.46,1.73 0.46,2.76zm12.16 14.47c0,1 -0.32,1.77 -0.95,2.29 -0.64,0.53 -1.36,0.79 -2.16,0.79 -0.81,0 -1.53,-0.26 -2.17,-0.79 -0.63,-0.52 -0.95,-1.29 -0.95,-2.29 0,-1.01 0.32,-1.77 0.95,-2.3 0.64,-0.52 1.36,-0.78 2.17,-0.78 0.8,0 1.52,0.26 2.16,0.78 0.63,0.53 0.95,1.29 0.95,2.3zm21.41 -9.01c0,3.91 -0.74,6.9 -2.22,8.99 -1.49,2.09 -3.54,3.13 -6.15,3.13 -2.62,0 -4.67,-1.04 -6.15,-3.13 -1.49,-2.09 -2.23,-5.08 -2.23,-8.99 0,-1.94 0.2,-3.66 0.59,-5.16 0.39,-1.49 0.95,-2.75 1.69,-3.78 0.74,-1.03 1.62,-1.81 2.65,-2.35 1.02,-0.53 2.17,-0.8 3.45,-0.8 2.61,0 4.66,1.04 6.15,3.13 1.48,2.09 2.22,5.08 2.22,8.96zm-5.09 0c0,-1.16 -0.06,-2.22 -0.17,-3.16 -0.11,-0.95 -0.29,-1.77 -0.53,-2.47 -0.25,-0.69 -0.58,-1.23 -1.01,-1.6 -0.42,-0.38 -0.95,-0.57 -1.57,-0.57 -0.63,0 -1.15,0.19 -1.56,0.57 -0.41,0.37 -0.75,0.91 -1.01,1.6 -0.25,0.7 -0.44,1.52 -0.55,2.47 -0.11,0.94 -0.17,2 -0.17,3.16 0,1.16 0.06,2.22 0.17,3.18 0.11,0.96 0.3,1.79 0.55,2.48 0.26,0.69 0.6,1.23 1.01,1.61 0.41,0.38 0.93,0.57 1.56,0.57 0.62,0 1.15,-0.19 1.57,-0.57 0.43,-0.38 0.76,-0.92 1.01,-1.61 0.24,-0.69 0.42,-1.52 0.53,-2.48 0.11,-0.96 0.17,-2.02 0.17,-3.18z"/>
 </g>
</svg>
